<?xml version="1.0" encoding="UTF-8"?>
<svg width="128px" height="128px" viewBox="0 0 128 128" version="1.1" xmlns="http://www.w3.org/2000/svg" xmlns:xlink="http://www.w3.org/1999/xlink">
    <!-- Generator: Sketch 59.1 (86144) - https://sketch.com -->
    <title>craft-shopify-icon</title>
    <desc>Created with Sketch.</desc>
    <g id="craft-shopify-icon" stroke="none" stroke-width="1" fill="none" fill-rule="evenodd">
        <g id="shopify_glyph" transform="translate(9.000000, 1.000000)" fill-rule="nonzero">
            <path d="M95.9,24.9 C95.8,24.3 95.3,23.9 94.8,23.9 C94.3,23.9 85.5,23.7 85.5,23.7 C85.5,23.7 78.1,16.5 77.4,15.8 C76.7,15.1 75.2,15.3 74.7,15.5 C74.7,15.5 73.3,15.9 71,16.6 C70.6,15.3 70,13.8 69.2,12.2 C66.6,7.2 62.7,4.5 58.1,4.5 C58.1,4.5 58.1,4.5 58.1,4.5 C57.8,4.5 57.5,4.5 57.1,4.6 C57,4.4 56.8,4.3 56.7,4.1 C54.7,1.9 52.1,0.9 49,1 C43,1.2 37,5.5 32.2,13.2 C28.8,18.6 26.2,25.4 25.4,30.7 C18.5,32.8 13.7,34.3 13.6,34.4 C10.1,35.5 10,35.6 9.6,38.9 C9.3,41.4 0.1,111.9 0.1,111.9 L76.5,125.1 L109.6,116.9 C109.5,116.8 96,25.5 95.9,24.9 Z M67.2,17.8 C65.4,18.3 63.4,19 61.3,19.6 C61.3,16.6 60.9,12.3 59.5,8.7 C64,9.6 66.2,14.7 67.2,17.8 Z M57.2,20.9 C53.2,22.1 48.8,23.5 44.4,24.8 C45.6,20.1 48,15.4 50.8,12.3 C51.9,11.2 53.4,9.9 55.1,9.1 C56.9,12.6 57.3,17.5 57.2,20.9 Z M49.1,5 C50.5,5 51.7,5.3 52.7,5.9 C51.1,6.8 49.5,8 48,9.6 C44.2,13.7 41.3,20.1 40.1,26.2 C36.5,27.3 32.9,28.4 29.6,29.4 C31.7,19.8 39.8,5.3 49.1,5 Z" id="Shape" fill="#95BF47"></path>
            <g id="Group" transform="translate(20.000000, 15.000000)">
                <path d="M74.8,8.9 C74.3,8.9 65.5,8.7 65.5,8.7 C65.5,8.7 58.1,1.5 57.4,0.8 C57.1,0.5 56.8,0.4 56.4,0.3 L56.4,110 L89.5,101.8 C89.5,101.8 76,10.5 75.9,9.8 C75.8,9.3 75.3,8.9 74.8,8.9 Z" id="Path" fill="#5E8E3E"></path>
                <path d="M38,25.9 L34.2,40.3 C34.2,40.3 29.9,38.3 24.8,38.7 C17.3,39.2 17.3,43.9 17.3,45.1 C17.7,51.5 34.6,52.9 35.6,68 C36.3,79.9 29.3,88 19.2,88.6 C7,89.4 0.3,82.2 0.3,82.2 L2.9,71.2 C2.9,71.2 9.6,76.3 15,75.9 C18.5,75.7 19.8,72.8 19.7,70.8 C19.2,62.4 5.4,62.9 4.5,49.1 C3.8,37.5 11.4,25.7 28.2,24.7 C34.7,24.2 38,25.9 38,25.9 Z" id="Path" fill="#FFFFFF"></path>
            </g>
        </g>
    </g>
</svg>