<?xml version="1.0" encoding="UTF-8"?>
<svg width="128px" height="128px" viewBox="0 0 128 128" version="1.1" xmlns="http://www.w3.org/2000/svg" xmlns:xlink="http://www.w3.org/1999/xlink">
    <!-- Generator: Sketch 59.1 (86144) - https://sketch.com -->
    <title>craft-shopify-icon-mask</title>
    <desc>Created with Sketch.</desc>
    <g id="craft-shopify-icon-mask" stroke="none" stroke-width="1" fill="none" fill-rule="evenodd">
        <path d="M58.6660567,2.00681394 C61.757548,1.90673873 64.3504117,2.90749084 66.3449222,5.10914547 C66.4446478,5.30929589 66.6440988,5.4093711 66.7438243,5.60952153 C67.1427264,5.50944631 67.441903,5.50944631 67.7410796,5.50944631 L67.7410796,5.50944631 L68.0527664,5.51362865 C72.5045703,5.6334548 76.276678,8.32519883 78.810613,13.2152375 C79.6084172,14.8164409 80.2067704,16.3175691 80.6056725,17.6185468 C82.8993596,16.9180203 84.2955169,16.5177195 84.2955169,16.5177195 C84.494968,16.5177195 84.7941446,16.4176443 85.3924977,16.4176443 L85.3924977,16.4176443 L85.3924977,126 L10,112.890147 C10,112.890147 19.1747484,42.4371991 19.473925,39.9353188 C19.8728271,36.6328368 19.9725526,36.5327616 23.462946,35.4319343 C23.5626715,35.3318591 28.3494968,33.8307309 35.2305581,31.7291515 C35.9286368,26.4251654 38.5215005,19.620051 41.9121683,14.2159896 C46.6989936,6.51019842 52.6825252,2.20696436 58.6660567,2.00681394 Z M87.6861848,17.6185468 C89.6806953,19.620051 95.0658737,24.823962 95.0658737,24.823962 C95.0658737,24.823962 103.84172,25.0241124 104.340348,25.0241124 C104.838975,25.0241124 105.337603,25.4244132 105.437328,26.0248645 C105.537054,26.6253158 119,117.993983 119,117.993983 L119,117.993983 L87.6861848,125.79985 Z M67.6413541,41.936823 C67.6413541,41.936823 64.3504117,40.3356196 57.8682525,40.7359205 C41.1143641,41.8367478 33.5352242,53.5455475 34.3330284,65.1542719 C35.2305581,78.964651 48.9926807,78.4642749 49.4913083,86.8705926 C49.5910339,88.8720968 48.294602,91.7742779 44.8042086,91.9744284 C39.4190302,92.3747292 32.7374199,87.2708935 32.7374199,87.2708935 L32.7374199,87.2708935 L30.1445563,98.2791666 C30.1445563,98.2791666 36.8261665,105.484582 48.9926807,104.68398 C59.0649588,104.083529 66.0457457,95.9774368 65.347667,84.0684867 C64.3504117,68.9571299 47.4967978,67.556077 47.0978957,61.1512635 C46.9981702,59.9503609 47.0978957,55.246826 54.4775846,54.74645 C59.5635865,54.3461491 63.8517841,56.3476534 63.8517841,56.3476534 L63.8517841,56.3476534 Z M58.6660567,6.10989758 C49.4913083,6.310048 41.4135407,20.8209536 39.2195791,30.4281738 C42.5105215,29.4274217 46.1006404,28.3265944 49.6907594,27.225767 C50.8874657,21.1211792 53.7795059,14.7163657 57.5690759,10.6132821 C59.0649588,9.1121539 60.6605672,7.81117616 62.2561757,7.01057448 C61.2589204,6.41012321 60.0622141,6.10989758 58.6660567,6.10989758 Z M64.8490393,10.112906 C63.1537054,10.9135077 61.6578225,12.2144854 60.5608417,13.3153127 C57.768527,16.4176443 55.3751144,21.1211792 54.1784081,25.8247141 C58.4666057,24.5237363 62.8545288,23.1226834 66.8435499,21.9217809 C66.9432754,18.6192989 66.5443733,13.7156136 64.8490393,10.112906 Z M69.0375114,9.81268038 C70.4336688,13.415388 70.8325709,17.718622 70.8325709,20.7208783 C73.0265325,20.0203519 75.021043,19.4199006 76.8161025,18.9195245 C75.8188472,15.817193 73.6248856,10.7133573 69.0375114,9.81268038 Z" id="Shopify-Glyph-Black" fill="#000000" fill-rule="nonzero"></path>
    </g>
</svg>